HIERARCHY
ROOT hip
{
	OFFSET 0.000000 0.000000 0.000000 
	CHANNELS 6 Xposition Yposition Zposition Xrotation Zrotation Yrotation
	JOINT abdomen
	{
		OFFSET 0.000000 3.402643 0.000000 
		CHANNELS 3 Xrotation Zrotation Yrotation
		JOINT chest
		{
			OFFSET 0.000000 8.438565 -0.680529 
			CHANNELS 3 Xrotation Zrotation Yrotation
			JOINT neck
			{
				OFFSET 0.000000 10.207942 -0.272212 
				CHANNELS 3 Xrotation Zrotation Yrotation
				JOINT head
				{
					OFFSET 0.000000 3.130431 0.000000 
					CHANNELS 3 Xrotation Zrotation Yrotation
					End Site
					{
						OFFSET 0.000000 3.130435 0.000000 
					}
				}
			}
			JOINT lCollar
			{
				OFFSET 3.470700 6.669187 -0.816635 
				CHANNELS 3 Yrotation Zrotation Xrotation
				JOINT lShldr
				{
					OFFSET 3.198488 0.000000 0.000000 
					CHANNELS 3 Zrotation Yrotation Xrotation
					JOINT lForeArm
					{
						OFFSET 10.139888 0.000000 0.000000 
						CHANNELS 3 Yrotation Zrotation Xrotation
						JOINT lHand
						{
							OFFSET 8.370511 0.000000 0.000000 
							CHANNELS 3 Zrotation Yrotation Xrotation
							End Site
							{
								OFFSET 4.083176 0.000000 0.000000 
							}
						}
					}
				}
			}
			JOINT rCollar
			{
				OFFSET -3.470700 6.669187 -0.816635 
				CHANNELS 3 Yrotation Zrotation Xrotation
				JOINT rShldr
				{
					OFFSET -3.198488 0.000000 0.000000 
					CHANNELS 3 Zrotation Yrotation Xrotation
					JOINT rForeArm
					{
						OFFSET -10.139888 0.000000 0.000000 
						CHANNELS 3 Yrotation Zrotation Xrotation
						JOINT rHand
						{
							OFFSET -8.370511 0.000000 0.000000 
							CHANNELS 3 Zrotation Yrotation Xrotation
							End Site
							{
								OFFSET -4.083176 0.000000 0.000000 
							}
						}
					}
				}
			}
		}
	}
	JOINT lThigh
	{
		OFFSET 5.308129 -1.633274 1.361059 
		CHANNELS 3 Xrotation Zrotation Yrotation
		JOINT lShin
		{
			OFFSET -2.041588 -20.007561 0.000000 
			CHANNELS 3 Xrotation Zrotation Yrotation
			JOINT lFoot
			{
				OFFSET 0.000000 -19.190928 -1.224953 
				CHANNELS 3 Xrotation Yrotation Zrotation
				End Site
				{
					OFFSET 0.000000 -2.449906 4.627600 
				}
			}
		}
	}
	JOINT rThigh
	{
		OFFSET -5.308129 -1.633274 1.361059 
		CHANNELS 3 Xrotation Zrotation Yrotation
		JOINT rShin
		{
			OFFSET 2.041588 -20.007561 0.000000 
			CHANNELS 3 Xrotation Zrotation Yrotation
			JOINT rFoot
			{
				OFFSET 0.000000 -19.190928 -1.224953 
				CHANNELS 3 Xrotation Yrotation Zrotation
				End Site
				{
					OFFSET 0.000000 -2.449906 4.627600 
				}
			}
		}
	}
}
MOTION
Frames: 6
Frame Time: 0.016667
0.106804 44.351479 -0.244493 1.555530 3.436240 -6.283280 -20.098000 -0.528147 3.905820 15.459000 -0.204267 1.785800 -10.960100 1.636340 -0.841490 2.936610 5.870200 0.036869 2.000000 -2.000000 0.000000 -72.921402 -1.355670 159.856003 25.302999 -0.338448 0.058493 0.044887 -0.009020 -140.143997 -2.000000 2.000000 0.000000 -108.037003 -175.175995 -4.279900 -36.172298 0.325213 0.080695 -0.054491 -0.005468 -134.968994 -6.042472 -8.598185 -6.585933 18.715412 2.539843 1.585764 -14.518791 13.919888 4.368755 -9.844828 1.805885 22.493217 27.126017 -3.088484 -1.966549 -18.064960 -11.893360 -3.531008 
0.170906 44.323082 -0.134517 1.673280 3.631270 -6.260780 -20.150400 -0.633928 3.790330 15.361300 -0.058353 1.714290 -13.199500 1.671910 -1.451190 2.160840 6.035700 -0.252466 2.000000 -2.000000 0.000000 -69.132004 -2.831440 159.341995 25.146799 -0.338607 0.058156 0.044963 -0.010276 -140.593994 -2.000000 2.000000 0.000000 -111.210999 -176.464996 -4.100230 -37.295300 0.323610 0.082843 -0.054412 -0.002105 -136.169998 -6.023742 -8.805884 -6.278902 18.620720 2.507514 1.572760 -14.505545 13.767513 4.340348 -9.985786 1.595017 22.576130 27.392241 -3.086739 -1.982290 -18.333261 -11.875088 -3.611006 
0.228689 44.289547 -0.011619 1.781150 3.748190 -6.211260 -20.232599 -0.712942 3.634950 15.244100 0.155579 1.616390 -15.259500 1.782460 -2.142720 1.453180 6.258670 -0.562047 2.000000 -2.000000 0.000000 -64.941597 -4.670370 157.998993 24.756100 -0.339000 0.057311 0.044977 -0.010494 -140.671997 -2.000000 2.000000 0.000000 -114.960999 -178.016998 -3.940280 -38.457401 0.321907 0.085032 -0.054403 0.001149 -137.332001 -6.040462 -8.913116 -5.848750 18.565750 2.475547 1.569244 -14.460176 13.500703 4.277125 -10.107087 1.462690 22.667868 27.700609 -3.064318 -2.012615 -18.679306 -11.899256 -3.712614 
0.289374 44.253048 0.149998 1.908090 3.611280 -6.148930 -20.354300 -0.750235 3.424050 15.205000 0.301415 1.504970 -17.074600 1.851860 -2.821470 0.813676 6.480750 -0.878100 2.000000 -2.000000 0.000000 -60.310799 -6.765750 155.473007 24.170200 -0.339579 0.056038 0.044930 -0.009757 -140.408005 -2.000000 2.000000 0.000000 -119.296997 -179.931000 -3.642750 -39.619499 0.320161 0.087186 -0.054430 0.003173 -138.054993 -6.106879 -8.762063 -5.263915 18.789860 2.503228 1.598799 -14.577744 12.966617 4.137418 -10.156206 1.585766 22.609344 27.937563 -3.055648 -2.017318 -18.967260 -11.900417 -3.806816 
0.328676 44.211678 0.330177 1.750710 3.162590 -6.250650 -20.483700 -0.699481 3.253270 15.048700 0.408263 1.425480 -18.730700 2.110200 -3.318290 0.577750 6.489450 -1.041850 2.000000 -2.000000 0.000000 -54.751499 -9.507120 152.207001 22.929899 -0.340761 0.053326 0.044815 -0.007627 -139.645996 -2.000000 2.000000 0.000000 -124.473000 177.617996 -3.793150 -40.342201 0.319053 0.088507 -0.054405 0.001423 -137.429993 -6.066803 -8.417151 -5.151000 19.582361 2.554541 1.632305 -15.199381 12.794182 4.150575 -9.831526 2.008471 22.476925 28.035351 -3.059767 -2.017024 -19.103004 -11.887052 -3.816414 
0.371940 44.174019 0.520616 1.691560 2.860080 -6.399560 -20.652800 -0.770708 3.118720 14.960800 0.388764 1.358400 -19.896900 2.291310 -3.781230 0.361012 6.585840 -1.219920 2.000000 -2.000000 0.000000 -48.146900 -12.561400 148.619003 21.123301 -0.342378 0.049330 0.044656 -0.002708 -137.889008 -2.000000 2.000000 0.000000 -130.087997 174.774002 -4.498390 -40.840302 0.318280 0.089410 -0.054412 -0.002078 -136.179993 -6.055997 -8.191251 -4.937014 20.181021 2.580745 1.665533 -15.573318 12.670607 4.187467 -9.782135 2.330817 22.283531 28.422127 -3.040627 -2.056676 -19.247164 -11.780165 -3.792417 
